<?xml version="1.0" encoding="UTF-8" standalone="no"?>
<svg
   width="48"
   height="48"
   viewBox="0 0 48 48"
   fill="none"
   version="1.1"
   id="svg4"
   sodipodi:docname="dashicons_printer-48.svg"
   inkscape:version="1.1 (c68e22c387, 2021-05-23)"
   xmlns:inkscape="http://www.inkscape.org/namespaces/inkscape"
   xmlns:sodipodi="http://sodipodi.sourceforge.net/DTD/sodipodi-0.dtd"
   xmlns="http://www.w3.org/2000/svg"
   xmlns:svg="http://www.w3.org/2000/svg">
  <defs
     id="defs8" />
  <sodipodi:namedview
     id="namedview6"
     pagecolor="#505050"
     bordercolor="#eeeeee"
     borderopacity="1"
     inkscape:pageshadow="0"
     inkscape:pageopacity="0"
     inkscape:pagecheckerboard="0"
     showgrid="false"
     inkscape:zoom="10.5125"
     inkscape:cx="2.7110583"
     inkscape:cy="3.1866825"
     inkscape:window-width="1920"
     inkscape:window-height="1010"
     inkscape:window-x="-6"
     inkscape:window-y="-6"
     inkscape:window-maximized="1"
     inkscape:current-layer="svg4" />
  <path
     d="M 30,27 H 15 v 3 h 15 z m 3,12 H 15 v 3 h 18 z m -9,-6 h -9 v 3 h 9 z M 45,12 H 39 V 0 H 9 V 12 H 3 c -1.8,0 -3,1.2 -3,3 v 15 c 0,1.8 1.2,3 3,3 H 9 V 48 H 39 V 33 h 6 c 1.8,0 3,-1.2 3,-3 V 15 c 0,-1.8 -1.2,-3 -3,-3 z M 36,45 H 12 V 24 H 36 Z M 36,12 H 12 V 3 h 24 z m 6,9 h -3 v -3 h 3 z"
     fill="#000000"
     id="path2"
     style="stroke-width:3" />
</svg>
