<?xml version="1.0" encoding="UTF-8" standalone="no"?>
<svg
   width="64"
   height="64"
   viewBox="0 0 64 64"
   fill="none"
   version="1.1"
   id="svg4"
   sodipodi:docname="dashicons_printer-64.svg"
   inkscape:version="1.1 (c68e22c387, 2021-05-23)"
   xmlns:inkscape="http://www.inkscape.org/namespaces/inkscape"
   xmlns:sodipodi="http://sodipodi.sourceforge.net/DTD/sodipodi-0.dtd"
   xmlns="http://www.w3.org/2000/svg"
   xmlns:svg="http://www.w3.org/2000/svg">
  <defs
     id="defs8" />
  <sodipodi:namedview
     id="namedview6"
     pagecolor="#505050"
     bordercolor="#eeeeee"
     borderopacity="1"
     inkscape:pageshadow="0"
     inkscape:pageopacity="0"
     inkscape:pagecheckerboard="0"
     showgrid="false"
     inkscape:zoom="10.5125"
     inkscape:cx="2.7110583"
     inkscape:cy="3.1866825"
     inkscape:window-width="1920"
     inkscape:window-height="1010"
     inkscape:window-x="-6"
     inkscape:window-y="-6"
     inkscape:window-maximized="1"
     inkscape:current-layer="svg4" />
  <path
     d="M 40,36 H 20 v 4 h 20 z m 4,16 H 20 v 4 H 44 Z M 32,44 H 20 v 4 H 32 Z M 60,16 H 52 V 0 H 12 V 16 H 4 c -2.4,0 -4,1.6 -4,4 v 20 c 0,2.4 1.6,4 4,4 h 8 V 64 H 52 V 44 h 8 c 2.4,0 4,-1.6 4,-4 V 20 c 0,-2.4 -1.6,-4 -4,-4 z M 48,60 H 16 V 32 H 48 Z M 48,16 H 16 V 4 h 32 z m 8,12 h -4 v -4 h 4 z"
     fill="#000000"
     id="path2"
     style="stroke-width:4" />
</svg>
