<?xml version="1.0" encoding="UTF-8" standalone="no"?>
<svg
   width="32"
   height="32"
   viewBox="0 0 32 32"
   fill="none"
   version="1.1"
   id="svg4"
   sodipodi:docname="dashicons_printer-32.svg"
   inkscape:version="1.1 (c68e22c387, 2021-05-23)"
   xmlns:inkscape="http://www.inkscape.org/namespaces/inkscape"
   xmlns:sodipodi="http://sodipodi.sourceforge.net/DTD/sodipodi-0.dtd"
   xmlns="http://www.w3.org/2000/svg"
   xmlns:svg="http://www.w3.org/2000/svg">
  <defs
     id="defs8" />
  <sodipodi:namedview
     id="namedview6"
     pagecolor="#505050"
     bordercolor="#eeeeee"
     borderopacity="1"
     inkscape:pageshadow="0"
     inkscape:pageopacity="0"
     inkscape:pagecheckerboard="0"
     showgrid="false"
     inkscape:zoom="10.5125"
     inkscape:cx="2.7110583"
     inkscape:cy="3.1866825"
     inkscape:window-width="1920"
     inkscape:window-height="1010"
     inkscape:window-x="-6"
     inkscape:window-y="-6"
     inkscape:window-maximized="1"
     inkscape:current-layer="svg4" />
  <path
     d="M 20,18 H 10 v 2 h 10 z m 2,8 H 10 v 2 h 12 z m -6,-4 h -6 v 2 h 6 z M 30,8 H 26 V 0 H 6 V 8 H 2 C 0.8,8 0,8.8 0,10 v 10 c 0,1.2 0.8,2 2,2 H 6 V 32 H 26 V 22 h 4 c 1.2,0 2,-0.8 2,-2 V 10 C 32,8.8 31.2,8 30,8 Z M 24,30 H 8 V 16 H 24 Z M 24,8 H 8 V 2 h 16 z m 4,6 h -2 v -2 h 2 z"
     fill="#000000"
     id="path2"
     style="stroke-width:2" />
</svg>
