<?xml version="1.0" encoding="UTF-8" standalone="no"?>
<svg
   width="24"
   height="24"
   viewBox="0 0 24 24"
   fill="none"
   version="1.1"
   id="svg4"
   sodipodi:docname="dashicons_printer-24.svg"
   inkscape:version="1.1 (c68e22c387, 2021-05-23)"
   xmlns:inkscape="http://www.inkscape.org/namespaces/inkscape"
   xmlns:sodipodi="http://sodipodi.sourceforge.net/DTD/sodipodi-0.dtd"
   xmlns="http://www.w3.org/2000/svg"
   xmlns:svg="http://www.w3.org/2000/svg">
  <defs
     id="defs8" />
  <sodipodi:namedview
     id="namedview6"
     pagecolor="#505050"
     bordercolor="#eeeeee"
     borderopacity="1"
     inkscape:pageshadow="0"
     inkscape:pageopacity="0"
     inkscape:pagecheckerboard="0"
     showgrid="false"
     inkscape:zoom="10.5125"
     inkscape:cx="2.8061831"
     inkscape:cy="3.1866825"
     inkscape:window-width="1920"
     inkscape:window-height="1010"
     inkscape:window-x="3833"
     inkscape:window-y="1064"
     inkscape:window-maximized="1"
     inkscape:current-layer="svg4" />
  <path
     d="M 15,13.5 H 7.5 V 15 H 15 Z m 1.5,6 h -9 V 21 h 9 z M 12,16.5 H 7.5 V 18 H 12 Z M 22.5,6 h -3 V 0 h -15 v 6 h -3 C 0.6,6 0,6.6 0,7.5 V 15 c 0,0.9 0.6,1.5 1.5,1.5 h 3 V 24 h 15 v -7.5 h 3 C 23.4,16.5 24,15.9 24,15 V 7.5 C 24,6.6 23.4,6 22.5,6 Z M 18,22.5 H 6 V 12 H 18 Z M 18,6 H 6 V 1.5 h 12 z m 3,4.5 H 19.5 V 9 H 21 Z"
     fill="#000000"
     id="path2"
     style="stroke-width:1.5;fill:#000000;fill-opacity:1" />
</svg>
