<?xml version="1.0" encoding="UTF-8" standalone="no"?>
<svg
   width="24"
   height="24"
   viewBox="0 0 24 24"
   fill="none"
   version="1.1"
   id="svg4"
   sodipodi:docname="fluent_info-24-regular.svg"
   inkscape:version="1.1 (c68e22c387, 2021-05-23)"
   xmlns:inkscape="http://www.inkscape.org/namespaces/inkscape"
   xmlns:sodipodi="http://sodipodi.sourceforge.net/DTD/sodipodi-0.dtd"
   xmlns="http://www.w3.org/2000/svg"
   xmlns:svg="http://www.w3.org/2000/svg">
  <defs
     id="defs8" />
  <sodipodi:namedview
     id="namedview6"
     pagecolor="#505050"
     bordercolor="#eeeeee"
     borderopacity="1"
     inkscape:pageshadow="0"
     inkscape:pageopacity="0"
     inkscape:pagecheckerboard="0"
     showgrid="false"
     inkscape:zoom="21.238457"
     inkscape:cx="11.700473"
     inkscape:cy="12.312571"
     inkscape:window-width="1920"
     inkscape:window-height="1010"
     inkscape:window-x="-6"
     inkscape:window-y="-6"
     inkscape:window-maximized="1"
     inkscape:current-layer="svg4" />
  <path
     d="M 13,6 C 13,6.26522 12.8946,6.51957 12.7071,6.70711 12.5196,6.89464 12.2652,7 12,7 11.7348,7 11.4804,6.89464 11.2929,6.70711 11.1054,6.51957 11,6.26522 11,6 11,5.73478 11.1054,5.48043 11.2929,5.29289 11.4804,5.10536 11.7348,5 12,5 12.2652,5 12.5196,5.10536 12.7071,5.29289 12.8946,5.48043 13,5.73478 13,6 Z m -1.75,3.75 v 7.5 c 0,0.1989 0.079,0.3897 0.2197,0.5303 C 11.6103,17.921 11.8011,18 12,18 12.1989,18 12.3897,17.921 12.5303,17.7803 12.671,17.6397 12.75,17.4489 12.75,17.25 V 9.75 C 12.75,9.5511 12.671,9.3603 12.5303,9.2197003 12.3897,9.0790003 12.1989,9 12,9 11.8011,9 11.6103,9.0790029 11.4697,9.2197003 11.329,9.3603 11.25,9.5511 11.25,9.75 Z M 0,12 C 0,5.373 5.373,0 12,0 18.627,0 24,5.373 24,12 24,18.627 18.627,24 12,24 5.373,24 0,18.627 0,12 Z M 12,1.5 C 6.201,1.5 1.5,6.201 1.5,12 1.5,17.799 6.201,22.5 12,22.5 17.799,22.5 22.5,17.799 22.5,12 22.5,6.201 17.799,1.5 12,1.5 Z"
     fill="#000000"
     id="path2"
     style="stroke-width:0.999994" />
</svg>
