<?xml version="1.0" encoding="UTF-8" standalone="no"?>
<svg
   width="32"
   height="32"
   viewBox="0 0 32 32"
   fill="none"
   version="1.1"
   id="svg4"
   sodipodi:docname="fluent_info-32-regular.svg"
   inkscape:version="1.1 (c68e22c387, 2021-05-23)"
   xmlns:inkscape="http://www.inkscape.org/namespaces/inkscape"
   xmlns:sodipodi="http://sodipodi.sourceforge.net/DTD/sodipodi-0.dtd"
   xmlns="http://www.w3.org/2000/svg"
   xmlns:svg="http://www.w3.org/2000/svg">
  <defs
     id="defs8" />
  <sodipodi:namedview
     id="namedview6"
     pagecolor="#505050"
     bordercolor="#eeeeee"
     borderopacity="1"
     inkscape:pageshadow="0"
     inkscape:pageopacity="0"
     inkscape:pagecheckerboard="0"
     showgrid="false"
     inkscape:zoom="30.035714"
     inkscape:cx="14"
     inkscape:cy="14"
     inkscape:window-width="1920"
     inkscape:window-height="1010"
     inkscape:window-x="-6"
     inkscape:window-y="-6"
     inkscape:window-maximized="1"
     inkscape:current-layer="svg4" />
  <path
     d="m 17.333334,8 c 0,0.3536266 -0.140534,0.69276 -0.390534,0.9428134 -0.25,0.25004 -0.5892,0.39052 -0.9428,0.39052 -0.3536,0 -0.6928,-0.14048 -0.9428,-0.39052 C 14.8072,8.69276 14.666666,8.3536266 14.666666,8 c 0,-0.3536266 0.140534,-0.69276 0.390534,-0.9428134 0.25,-0.25004 0.5892,-0.39052 0.9428,-0.39052 0.3536,0 0.6928,0.14048 0.9428,0.39052 C 17.1928,7.30724 17.333334,7.6463734 17.333334,8 Z M 15,13 v 10 c 0,0.2652 0.105337,0.5196 0.292934,0.707066 C 15.4804,23.894666 15.7348,24 16,24 16.2652,24 16.5196,23.894663 16.707066,23.707066 16.894666,23.5196 17,23.2652 17,23 V 13 C 17,12.7348 16.894663,12.4804 16.707066,12.292934 16.5196,12.105334 16.2652,12 16,12 15.7348,12 15.4804,12.105337 15.292934,12.292934 15.105334,12.4804 15,12.7348 15,13 Z M 0,16 C 0,7.164 7.164,0 16,0 24.836,0 32,7.164 32,16 32,24.836 24.836,32 16,32 7.164,32 0,24.836 0,16 Z M 16,2 C 8.268,2 2,8.268 2,16 2,23.732 8.268,30 16,30 23.732,30 30,23.732 30,16 30,8.268 23.732,2 16,2 Z"
     fill="#000000"
     id="path2"
     style="stroke-width:1.33332" />
</svg>
