<?xml version="1.0" encoding="UTF-8" standalone="no"?>
<svg
   width="64"
   height="64"
   viewBox="0 0 64 64"
   fill="none"
   version="1.1"
   id="svg4"
   sodipodi:docname="fluent_info-64-regular.svg"
   inkscape:version="1.1 (c68e22c387, 2021-05-23)"
   xmlns:inkscape="http://www.inkscape.org/namespaces/inkscape"
   xmlns:sodipodi="http://sodipodi.sourceforge.net/DTD/sodipodi-0.dtd"
   xmlns="http://www.w3.org/2000/svg"
   xmlns:svg="http://www.w3.org/2000/svg">
  <defs
     id="defs8" />
  <sodipodi:namedview
     id="namedview6"
     pagecolor="#505050"
     bordercolor="#eeeeee"
     borderopacity="1"
     inkscape:pageshadow="0"
     inkscape:pageopacity="0"
     inkscape:pagecheckerboard="0"
     showgrid="false"
     inkscape:zoom="3.7544643"
     inkscape:cx="-20.908442"
     inkscape:cy="35.557669"
     inkscape:window-width="1920"
     inkscape:window-height="1010"
     inkscape:window-x="-6"
     inkscape:window-y="-6"
     inkscape:window-maximized="1"
     inkscape:current-layer="svg4" />
  <path
     d="m 34.666668,16 c 0,0.707253 -0.281068,1.38552 -0.781068,1.885627 -0.5,0.50008 -1.1784,0.78104 -1.8856,0.78104 -0.7072,0 -1.3856,-0.28096 -1.8856,-0.78104 C 29.6144,17.38552 29.333332,16.707253 29.333332,16 c 0,-0.707253 0.281068,-1.38552 0.781068,-1.885627 0.5,-0.50008 1.1784,-0.78104 1.8856,-0.78104 0.7072,0 1.3856,0.28096 1.8856,0.78104 0.5,0.500107 0.781068,1.178374 0.781068,1.885627 z M 30,26 v 20 c 0,0.5304 0.210675,1.0392 0.585868,1.414132 C 30.9608,47.789332 31.4696,48 32,48 32.5304,48 33.0392,47.789325 33.414132,47.414132 33.789332,47.0392 34,46.5304 34,46 V 26 C 34,25.4696 33.789327,24.9608 33.414132,24.585868 33.0392,24.210668 32.5304,24 32,24 31.4696,24 30.9608,24.210675 30.585868,24.585868 30.210668,24.9608 30,25.4696 30,26 Z M 0,32 C 0,14.328 14.328,0 32,0 49.672,0 64,14.328 64,32 64,49.672 49.672,64 32,64 14.328,64 0,49.672 0,32 Z M 32,4 C 16.536,4 4,16.536 4,32 4,47.464 16.536,60 32,60 47.464,60 60,47.464 60,32 60,16.536 47.464,4 32,4 Z"
     fill="#000000"
     id="path2"
     style="stroke-width:2.66664" />
</svg>
