<?xml version="1.0" encoding="UTF-8" standalone="no"?>
<svg
   width="32"
   height="32"
   viewBox="0 0 32 32"
   fill="none"
   version="1.1"
   id="svg4"
   sodipodi:docname="fluent_info-32-filled.svg"
   inkscape:version="1.1 (c68e22c387, 2021-05-23)"
   xmlns:inkscape="http://www.inkscape.org/namespaces/inkscape"
   xmlns:sodipodi="http://sodipodi.sourceforge.net/DTD/sodipodi-0.dtd"
   xmlns="http://www.w3.org/2000/svg"
   xmlns:svg="http://www.w3.org/2000/svg">
  <defs
     id="defs8" />
  <sodipodi:namedview
     id="namedview6"
     pagecolor="#505050"
     bordercolor="#eeeeee"
     borderopacity="1"
     inkscape:pageshadow="0"
     inkscape:pageopacity="0"
     inkscape:pagecheckerboard="0"
     showgrid="false"
     inkscape:zoom="15.017857"
     inkscape:cx="12.019025"
     inkscape:cy="12.884661"
     inkscape:window-width="1920"
     inkscape:window-height="1010"
     inkscape:window-x="-6"
     inkscape:window-y="-6"
     inkscape:window-maximized="1"
     inkscape:current-layer="svg4" />
  <path
     d="M 0,16 C 0,24.836 7.164,32 16,32 24.836,32 32,24.836 32,16 32,7.164 24.836,0 16,0 7.164,0 0,7.164 0,16 Z M 17.666666,8 c 0,0.4420266 -0.1756,0.8659466 -0.488132,1.1785066 C 16.866,9.4910666 16.442,9.6666666 16,9.6666666 c -0.442,0 -0.866,-0.1756 -1.178534,-0.48816 C 14.508934,8.8659466 14.333334,8.4420266 14.333334,8 c 0,-0.4420266 0.1756,-0.8659466 0.488132,-1.1785066 C 15.134,6.5089334 15.558,6.3333334 16,6.3333334 c 0.442,0 0.866,0.1756 1.178534,0.48816 0.312532,0.31256 0.488132,0.73648 0.488132,1.1785066 z M 16,12 c 0.3536,0 0.6928,0.140534 0.9428,0.390534 0.25,0.25 0.390534,0.5892 0.390534,0.9428 V 24 c 0,0.3536 -0.140534,0.6928 -0.390534,0.9428 -0.25,0.25 -0.5892,0.390534 -0.9428,0.390534 -0.3536,0 -0.6928,-0.140534 -0.9428,-0.390534 -0.25,-0.25 -0.390534,-0.5892 -0.390534,-0.9428 V 13.333334 c 0,-0.3536 0.140534,-0.6928 0.390534,-0.9428 C 15.3072,12.140534 15.6464,12 16,12 Z"
     fill="#000000"
     id="path2"
     style="stroke-width:1.33333" />
</svg>
