<?xml version="1.0" encoding="UTF-8" standalone="no"?>
<svg
   width="64"
   height="64"
   viewBox="0 0 64 64"
   fill="none"
   version="1.1"
   id="svg4"
   sodipodi:docname="fluent_info-64-filled.svg"
   inkscape:version="1.1 (c68e22c387, 2021-05-23)"
   xmlns:inkscape="http://www.inkscape.org/namespaces/inkscape"
   xmlns:sodipodi="http://sodipodi.sourceforge.net/DTD/sodipodi-0.dtd"
   xmlns="http://www.w3.org/2000/svg"
   xmlns:svg="http://www.w3.org/2000/svg">
  <defs
     id="defs8" />
  <sodipodi:namedview
     id="namedview6"
     pagecolor="#505050"
     bordercolor="#eeeeee"
     borderopacity="1"
     inkscape:pageshadow="0"
     inkscape:pageopacity="0"
     inkscape:pagecheckerboard="0"
     showgrid="false"
     inkscape:zoom="15.017857"
     inkscape:cx="12.019025"
     inkscape:cy="12.884661"
     inkscape:window-width="1920"
     inkscape:window-height="1010"
     inkscape:window-x="-6"
     inkscape:window-y="-6"
     inkscape:window-maximized="1"
     inkscape:current-layer="svg4" />
  <path
     d="M 0,32 C 0,49.672 14.328,64 32,64 49.672,64 64,49.672 64,32 64,14.328 49.672,0 32,0 14.328,0 0,14.328 0,32 Z M 35.333332,16 c 0,0.884053 -0.3512,1.731893 -0.976264,2.357013 C 33.732,18.982133 32.884,19.333333 32,19.333333 c -0.884,0 -1.732,-0.3512 -2.357068,-0.97632 C 29.017868,17.731893 28.666668,16.884053 28.666668,16 c 0,-0.884053 0.3512,-1.731893 0.976264,-2.357013 C 30.268,13.017867 31.116,12.666667 32,12.666667 c 0.884,0 1.732,0.3512 2.357068,0.97632 0.625064,0.62512 0.976264,1.47296 0.976264,2.357013 z M 32,24 c 0.7072,0 1.3856,0.281068 1.8856,0.781068 0.5,0.5 0.781068,1.1784 0.781068,1.8856 V 48 c 0,0.7072 -0.281068,1.3856 -0.781068,1.8856 -0.5,0.5 -1.1784,0.781068 -1.8856,0.781068 -0.7072,0 -1.3856,-0.281068 -1.8856,-0.781068 -0.5,-0.5 -0.781068,-1.1784 -0.781068,-1.8856 V 26.666668 c 0,-0.7072 0.281068,-1.3856 0.781068,-1.8856 C 30.6144,24.281068 31.2928,24 32,24 Z"
     fill="#000000"
     id="path2"
     style="stroke-width:2.66665" />
</svg>
