<?xml version="1.0" encoding="UTF-8" standalone="no"?>
<svg
   width="20"
   height="20"
   viewBox="0 0 20 20"
   fill="none"
   version="1.1"
   id="svg4"
   sodipodi:docname="fluent_info-20-regular.svg"
   inkscape:version="1.1 (c68e22c387, 2021-05-23)"
   xmlns:inkscape="http://www.inkscape.org/namespaces/inkscape"
   xmlns:sodipodi="http://sodipodi.sourceforge.net/DTD/sodipodi-0.dtd"
   xmlns="http://www.w3.org/2000/svg"
   xmlns:svg="http://www.w3.org/2000/svg">
  <defs
     id="defs8" />
  <sodipodi:namedview
     id="namedview6"
     pagecolor="#505050"
     bordercolor="#eeeeee"
     borderopacity="1"
     inkscape:pageshadow="0"
     inkscape:pageopacity="0"
     inkscape:pagecheckerboard="0"
     showgrid="false"
     inkscape:zoom="21.238457"
     inkscape:cx="11.700473"
     inkscape:cy="12.312571"
     inkscape:window-width="1920"
     inkscape:window-height="1010"
     inkscape:window-x="-6"
     inkscape:window-y="-6"
     inkscape:window-maximized="1"
     inkscape:current-layer="svg4" />
  <path
     d="m 10.833333,5 c 0,0.2210167 -0.08783,0.432975 -0.244083,0.5892583 C 10.433,5.7455333 10.221,5.8333333 10,5.8333333 c -0.221,0 -0.433,-0.0878 -0.58925,-0.244075 C 9.2545,5.432975 9.1666667,5.2210167 9.1666667,5 9.1666667,4.7789833 9.2545,4.567025 9.41075,4.4107417 9.567,4.2544667 9.779,4.1666667 10,4.1666667 c 0.221,0 0.433,0.0878 0.58925,0.244075 C 10.7455,4.567025 10.833333,4.7789833 10.833333,5 Z M 9.375,8.125 v 6.25 c 0,0.16575 0.065833,0.32475 0.1830833,0.441917 C 9.67525,14.934167 9.83425,15 10,15 10.16575,15 10.32475,14.93417 10.441917,14.816917 10.559167,14.69975 10.625,14.54075 10.625,14.375 V 8.125 C 10.625,7.95925 10.55917,7.80025 10.441917,7.6830836 10.32475,7.5658336 10.16575,7.5 10,7.5 9.83425,7.5 9.67525,7.5658358 9.5580833,7.6830836 9.4408333,7.80025 9.375,7.95925 9.375,8.125 Z M 0,10 C 0,4.4775 4.4775,0 10,0 15.5225,0 20,4.4775 20,10 20,15.5225 15.5225,20 10,20 4.4775,20 0,15.5225 0,10 Z M 10,1.25 c -4.8325,0 -8.75,3.9175 -8.75,8.75 0,4.8325 3.9175,8.75 8.75,8.75 4.8325,0 8.75,-3.9175 8.75,-8.75 0,-4.8325 -3.9175,-8.75 -8.75,-8.75 z"
     fill="#000000"
     id="path2"
     style="stroke-width:0.833328" />
</svg>
