<?xml version="1.0" encoding="UTF-8" standalone="no"?>
<svg
   width="64"
   height="64"
   viewBox="0 0 64 64"
   fill="none"
   version="1.1"
   id="svg4"
   sodipodi:docname="fluent_send-64-regular.svg"
   inkscape:version="1.1 (c68e22c387, 2021-05-23)"
   xmlns:inkscape="http://www.inkscape.org/namespaces/inkscape"
   xmlns:sodipodi="http://sodipodi.sourceforge.net/DTD/sodipodi-0.dtd"
   xmlns="http://www.w3.org/2000/svg"
   xmlns:svg="http://www.w3.org/2000/svg">
  <defs
     id="defs8" />
  <sodipodi:namedview
     id="namedview6"
     pagecolor="#505050"
     bordercolor="#eeeeee"
     borderopacity="1"
     inkscape:pageshadow="0"
     inkscape:pageopacity="0"
     inkscape:pagecheckerboard="0"
     showgrid="false"
     inkscape:zoom="8.7604167"
     inkscape:cx="-4.508918"
     inkscape:cy="14.668252"
     inkscape:window-width="1920"
     inkscape:window-height="1010"
     inkscape:window-x="-6"
     inkscape:window-y="-6"
     inkscape:window-maximized="1"
     inkscape:current-layer="svg4" />
  <path
     d="M 11.315274,32.003479 0.17447268,3.3589353 C -0.59996885,1.367261 1.342698,-0.53910269 3.2656757,0.14010093 L 3.5708581,0.26806685 62.638467,29.798528 c 0.380984,0.1903 0.705856,0.476097 0.94344,0.829481 0.237253,0.353383 0.379016,0.76222 0.411176,1.1868 0.03184,0.424584 -0.04657,0.850156 -0.2284,1.235036 -0.18146,0.38521 -0.460072,0.716608 -0.807915,0.961712 L 62.638467,34.201865 3.5708581,63.732459 C 1.6577249,64.687282 -0.42276625,62.928571 0.0760266,60.950019 L 0.17447253,60.638308 11.315273,32.003479 0.17447253,3.3589353 Z M 7.0755342,7.52603 15.640333,29.542597 h 21.746744 c 0.594612,0 1.16921,0.215572 1.617466,0.60636 0.448258,0.390788 0.739658,0.930868 0.820712,1.51984 l 0.02295,0.334682 c -3.28e-4,0.595202 -0.21592,1.170394 -0.60774,1.618602 -0.391488,0.448208 -0.932284,0.739248 -1.521976,0.81931 l -0.331435,0.02295 H 15.633769 L 7.072253,56.481059 56.036024,32.003479 7.072253,7.52603 Z"
     fill="#000000"
     id="path2"
     style="fill:#ffffff;fill-opacity:1;stroke-width:3.28133" />
</svg>
