<?xml version="1.0" encoding="UTF-8" standalone="no"?>
<svg
   width="32"
   height="32"
   viewBox="0 0 32 32"
   fill="none"
   version="1.1"
   id="svg4"
   sodipodi:docname="fluent_send-32-filled.svg"
   inkscape:version="1.1 (c68e22c387, 2021-05-23)"
   xmlns:inkscape="http://www.inkscape.org/namespaces/inkscape"
   xmlns:sodipodi="http://sodipodi.sourceforge.net/DTD/sodipodi-0.dtd"
   xmlns="http://www.w3.org/2000/svg"
   xmlns:svg="http://www.w3.org/2000/svg">
  <defs
     id="defs8" />
  <sodipodi:namedview
     id="namedview6"
     pagecolor="#505050"
     bordercolor="#eeeeee"
     borderopacity="1"
     inkscape:pageshadow="0"
     inkscape:pageopacity="0"
     inkscape:pagecheckerboard="0"
     showgrid="false"
     inkscape:zoom="16"
     inkscape:cx="5.65625"
     inkscape:cy="12.21875"
     inkscape:window-width="1920"
     inkscape:window-height="1010"
     inkscape:window-x="-6"
     inkscape:window-y="-6"
     inkscape:window-maximized="1"
     inkscape:current-layer="svg4" />
  <path
     d="M 17.340573,16.323647 4.9816612,18.382589 c -0.1420983,0.0238 -0.2754344,0.08449 -0.3866189,0.176036 -0.1111854,0.09153 -0.1962795,0.210816 -0.2467523,0.345672 L 0.08698117,30.319529 c -0.40693282,1.049978 0.69080131,2.050739 1.69828833,1.545436 L 31.320685,17.099647 c 0.204123,-0.1022 0.375756,-0.259378 0.495703,-0.453624 C 31.936343,16.451777 32,16.228001 32,15.999631 32,15.77126 31.93633,15.547484 31.816388,15.353237 31.696455,15.158991 31.524808,15.001987 31.320685,14.899613 L 1.7852695,0.13429565 C 0.77778248,-0.36936577 -0.31995165,0.63139471 0.08698117,1.6797321 L 4.3499308,13.094964 c 0.050473,0.134857 0.1355677,0.254128 0.2467524,0.345673 0.1111853,0.09172 0.2445207,0.15241 0.3866189,0.176035 l 12.3589129,2.058941 c 0.07712,0.01227 0.147348,0.05168 0.19805,0.111067 0.05055,0.05939 0.07844,0.134856 0.07844,0.212949 0,0.07809 -0.02789,0.153559 -0.07844,0.212948 -0.05071,0.05939 -0.120933,0.09876 -0.19805,0.111067 z"
     fill="black"
     id="path2"
     style="fill:#ffffff;fill-opacity:1;stroke-width:1.64073" />
</svg>
