<?xml version="1.0" encoding="UTF-8" standalone="no"?>
<svg
   width="28"
   height="28"
   viewBox="0 0 28 28"
   fill="none"
   version="1.1"
   id="svg4"
   sodipodi:docname="fluent_info-28-regular.svg"
   inkscape:version="1.1 (c68e22c387, 2021-05-23)"
   xmlns:inkscape="http://www.inkscape.org/namespaces/inkscape"
   xmlns:sodipodi="http://sodipodi.sourceforge.net/DTD/sodipodi-0.dtd"
   xmlns="http://www.w3.org/2000/svg"
   xmlns:svg="http://www.w3.org/2000/svg">
  <defs
     id="defs8" />
  <sodipodi:namedview
     id="namedview6"
     pagecolor="#505050"
     bordercolor="#eeeeee"
     borderopacity="1"
     inkscape:pageshadow="0"
     inkscape:pageopacity="0"
     inkscape:pagecheckerboard="0"
     showgrid="false"
     inkscape:zoom="30.035714"
     inkscape:cx="14"
     inkscape:cy="14"
     inkscape:window-width="1920"
     inkscape:window-height="1010"
     inkscape:window-x="-6"
     inkscape:window-y="-6"
     inkscape:window-maximized="1"
     inkscape:current-layer="svg4" />
  <path
     d="m 15.166667,7 c 0,0.3094233 -0.122967,0.606165 -0.341717,0.8249617 C 14.6062,8.0437467 14.3094,8.1666667 14,8.1666667 c -0.3094,0 -0.6062,-0.12292 -0.82495,-0.341705 C 12.9563,7.606165 12.833333,7.3094233 12.833333,7 12.833333,6.6905767 12.9563,6.393835 13.17505,6.1750383 13.3938,5.9562533 13.6906,5.8333333 14,5.8333333 c 0.3094,0 0.6062,0.12292 0.82495,0.341705 C 15.0437,6.393835 15.166667,6.6905767 15.166667,7 Z M 13.125,11.375 v 8.75 c 0,0.23205 0.09217,0.45465 0.256317,0.618683 C 13.54535,20.907833 13.76795,21 14,21 14.23205,21 14.45465,20.90783 14.618683,20.743683 14.782833,20.57965 14.875,20.35705 14.875,20.125 v -8.75 c 0,-0.23205 -0.09217,-0.45465 -0.256317,-0.618683 C 14.45465,10.592167 14.23205,10.5 14,10.5 c -0.23205,0 -0.45465,0.09217 -0.618683,0.256317 C 13.217167,10.92035 13.125,11.14295 13.125,11.375 Z M 0,14 C 0,6.2685 6.2685,0 14,0 21.7315,0 28,6.2685 28,14 28,21.7315 21.7315,28 14,28 6.2685,28 0,21.7315 0,14 Z M 14,1.75 C 7.2345,1.75 1.75,7.2345 1.75,14 1.75,20.7655 7.2345,26.25 14,26.25 20.7655,26.25 26.25,20.7655 26.25,14 26.25,7.2345 20.7655,1.75 14,1.75 Z"
     fill="#000000"
     id="path2"
     style="stroke-width:1.16666" />
</svg>
