<?xml version="1.0" encoding="UTF-8" standalone="no"?>
<svg
   width="64"
   height="64"
   viewBox="0 0 64 64"
   fill="none"
   version="1.1"
   id="svg4"
   sodipodi:docname="fluent_send-64-filled.svg"
   inkscape:version="1.1 (c68e22c387, 2021-05-23)"
   xmlns:inkscape="http://www.inkscape.org/namespaces/inkscape"
   xmlns:sodipodi="http://sodipodi.sourceforge.net/DTD/sodipodi-0.dtd"
   xmlns="http://www.w3.org/2000/svg"
   xmlns:svg="http://www.w3.org/2000/svg">
  <defs
     id="defs8" />
  <sodipodi:namedview
     id="namedview6"
     pagecolor="#505050"
     bordercolor="#eeeeee"
     borderopacity="1"
     inkscape:pageshadow="0"
     inkscape:pageopacity="0"
     inkscape:pagecheckerboard="0"
     showgrid="false"
     inkscape:zoom="16"
     inkscape:cx="5.65625"
     inkscape:cy="12.21875"
     inkscape:window-width="1920"
     inkscape:window-height="1010"
     inkscape:window-x="-6"
     inkscape:window-y="-6"
     inkscape:window-maximized="1"
     inkscape:current-layer="svg4" />
  <path
     d="M 34.681145,32.647295 9.9633224,36.765179 c -0.2841965,0.0476 -0.5508688,0.16898 -0.7732377,0.352072 -0.2223708,0.18306 -0.3925591,0.421632 -0.4935047,0.691344 L 0.17396235,60.639057 c -0.81386564,2.099956 1.38160255,4.101479 3.39657675,3.090872 L 62.641369,34.199295 c 0.408247,-0.2044 0.751512,-0.518756 0.991407,-0.907248 C 63.872685,32.903555 64,32.456003 64,31.999263 c 0,-0.456743 -0.127347,-0.904295 -0.367224,-1.292788 -0.239867,-0.388492 -0.58316,-0.7025 -0.991407,-0.907248 L 3.5705391,0.26859131 C 1.5555649,-0.73873153 -0.63990329,1.2627894 0.17396235,3.3594643 L 8.6998616,26.189928 c 0.1009467,0.269715 0.2711355,0.508256 0.4935048,0.691347 0.2223707,0.18344 0.4890415,0.30482 0.7732379,0.352069 l 24.7178247,4.117883 c 0.15424,0.02455 0.294696,0.10336 0.3961,0.222133 0.101107,0.118787 0.15688,0.269712 0.15688,0.425899 0,0.15618 -0.05577,0.307117 -0.15688,0.425896 -0.101413,0.118786 -0.241865,0.19752 -0.3961,0.222133 z"
     fill="black"
     id="path2"
     style="fill:#ffffff;fill-opacity:1;stroke-width:3.28147" />
</svg>
