<?xml version="1.0" encoding="UTF-8" standalone="no"?>
<svg
   width="28"
   height="28"
   viewBox="0 0 28 28"
   fill="none"
   version="1.1"
   id="svg4"
   sodipodi:docname="fluent_info-28-filled.svg"
   inkscape:version="1.1 (c68e22c387, 2021-05-23)"
   xmlns:inkscape="http://www.inkscape.org/namespaces/inkscape"
   xmlns:sodipodi="http://sodipodi.sourceforge.net/DTD/sodipodi-0.dtd"
   xmlns="http://www.w3.org/2000/svg"
   xmlns:svg="http://www.w3.org/2000/svg">
  <defs
     id="defs8" />
  <sodipodi:namedview
     id="namedview6"
     pagecolor="#505050"
     bordercolor="#eeeeee"
     borderopacity="1"
     inkscape:pageshadow="0"
     inkscape:pageopacity="0"
     inkscape:pagecheckerboard="0"
     showgrid="false"
     inkscape:zoom="15.017857"
     inkscape:cx="12.019025"
     inkscape:cy="12.884661"
     inkscape:window-width="1920"
     inkscape:window-height="1010"
     inkscape:window-x="-6"
     inkscape:window-y="-6"
     inkscape:window-maximized="1"
     inkscape:current-layer="svg4" />
  <path
     d="M 0,14 C 0,21.7315 6.2685,28 14,28 21.7315,28 28,21.7315 28,14 28,6.2685 21.7315,0 14,0 6.2685,0 0,6.2685 0,14 Z M 15.458333,7 c 0,0.3867733 -0.15365,0.7577033 -0.427116,1.0311933 -0.273467,0.27349 -0.644467,0.42714 -1.031217,0.42714 -0.38675,0 -0.75775,-0.15365 -1.031217,-0.42714 C 12.695317,7.7577033 12.541667,7.3867733 12.541667,7 c 0,-0.3867733 0.15365,-0.7577033 0.427116,-1.0311933 0.273467,-0.27349 0.644467,-0.42714 1.031217,-0.42714 0.38675,0 0.75775,0.15365 1.031217,0.42714 0.273466,0.27349 0.427116,0.64442 0.427116,1.0311933 z M 14,10.5 c 0.3094,0 0.6062,0.122967 0.82495,0.341717 0.21875,0.21875 0.341717,0.51555 0.341717,0.82495 V 21 c 0,0.3094 -0.122967,0.6062 -0.341717,0.82495 C 14.6062,22.0437 14.3094,22.166667 14,22.166667 c -0.3094,0 -0.6062,-0.122967 -0.82495,-0.341717 C 12.9563,21.6062 12.833333,21.3094 12.833333,21 v -9.333333 c 0,-0.3094 0.122967,-0.6062 0.341717,-0.82495 C 13.3938,10.622967 13.6906,10.5 14,10.5 Z"
     fill="#000000"
     id="path2"
     style="stroke-width:1.16666" />
</svg>
