<?xml version="1.0" encoding="UTF-8" standalone="no"?>
<svg
   width="48"
   height="48"
   viewBox="0 0 48 48"
   fill="none"
   version="1.1"
   id="svg4"
   sodipodi:docname="fluent_info-48-regular.svg"
   inkscape:version="1.1 (c68e22c387, 2021-05-23)"
   xmlns:inkscape="http://www.inkscape.org/namespaces/inkscape"
   xmlns:sodipodi="http://sodipodi.sourceforge.net/DTD/sodipodi-0.dtd"
   xmlns="http://www.w3.org/2000/svg"
   xmlns:svg="http://www.w3.org/2000/svg">
  <defs
     id="defs8" />
  <sodipodi:namedview
     id="namedview6"
     pagecolor="#505050"
     bordercolor="#eeeeee"
     borderopacity="1"
     inkscape:pageshadow="0"
     inkscape:pageopacity="0"
     inkscape:pagecheckerboard="0"
     showgrid="false"
     inkscape:zoom="3.7544643"
     inkscape:cx="-20.908442"
     inkscape:cy="35.557669"
     inkscape:window-width="1920"
     inkscape:window-height="1010"
     inkscape:window-x="-6"
     inkscape:window-y="-6"
     inkscape:window-maximized="1"
     inkscape:current-layer="svg4" />
  <path
     d="m 26.000001,12 c 0,0.53044 -0.210801,1.03914 -0.585801,1.41422 C 25.0392,13.78928 24.5304,14 24,14 23.4696,14 22.9608,13.78928 22.5858,13.41422 22.2108,13.03914 21.999999,12.53044 21.999999,12 c 0,-0.53044 0.210801,-1.03914 0.585801,-1.41422 0.375,-0.37506 0.8838,-0.5857801 1.4142,-0.5857801 0.5304,0 1.0392,0.2107201 1.4142,0.5857801 0.375,0.37508 0.585801,0.88378 0.585801,1.41422 z M 22.5,19.5 v 15 c 0,0.3978 0.158006,0.7794 0.439401,1.060599 C 23.2206,35.841999 23.6022,36 24,36 24.3978,36 24.7794,35.841994 25.060599,35.560599 25.341999,35.2794 25.5,34.8978 25.5,34.5 v -15 c 0,-0.3978 -0.158005,-0.7794 -0.439401,-1.060599 C 24.7794,18.158001 24.3978,18 24,18 23.6022,18 23.2206,18.158006 22.939401,18.439401 22.658001,18.7206 22.5,19.1022 22.5,19.5 Z M 0,24 C 0,10.746 10.746,0 24,0 37.254,0 48,10.746 48,24 48,37.254 37.254,48 24,48 10.746,48 0,37.254 0,24 Z M 24,3 C 12.402,3 3,12.402 3,24 3,35.598 12.402,45 24,45 35.598,45 45,35.598 45,24 45,12.402 35.598,3 24,3 Z"
     fill="#000000"
     id="path2"
     style="stroke-width:1.99998" />
</svg>
