<?xml version="1.0" standalone="no"?>
<!DOCTYPE svg PUBLIC "-//W3C//DTD SVG 20010904//EN"
 "http://www.w3.org/TR/2001/REC-SVG-20010904/DTD/svg10.dtd">
<svg version="1.0" xmlns="http://www.w3.org/2000/svg"
 width="512.000000pt" height="512.000000pt" viewBox="0 0 512.000000 512.000000"
 preserveAspectRatio="xMidYMid meet">
<metadata>
Created by potrace 1.14, written by Peter Selinger 2001-2017
</metadata>
<g transform="translate(0.000000,512.000000) scale(0.100000,-0.100000)"
fill="#000000" stroke="none">
<path d="M2467 5114 c-2 -2 -30 -6 -63 -8 -86 -8 -152 -16 -209 -26 -27 -6
-70 -12 -95 -15 -25 -3 -52 -7 -60 -10 -8 -2 -31 -6 -50 -9 -19 -3 -45 -8 -56
-10 -12 -2 -38 -7 -59 -10 -188 -30 -517 -149 -626 -226 -15 -11 -30 -20 -34
-20 -11 0 -153 -110 -218 -169 -174 -158 -362 -364 -444 -486 -85 -125 -152
-260 -198 -400 -20 -60 -41 -119 -46 -130 -18 -41 -51 -131 -54 -146 -2 -9
-11 -39 -20 -65 -10 -27 -19 -58 -20 -69 -2 -11 -7 -31 -12 -45 -25 -65 1
-366 48 -560 57 -240 185 -550 312 -758 12 -20 29 -49 36 -64 8 -16 18 -28 23
-28 4 0 8 -5 8 -10 0 -10 40 -76 67 -110 197 -253 292 -336 538 -466 90 -49
91 -49 68 -114 -3 -8 -7 -28 -9 -45 -3 -16 -9 -41 -14 -55 -5 -14 -11 -38 -14
-55 -2 -16 -25 -120 -51 -230 -25 -110 -48 -209 -49 -220 -2 -11 -6 -27 -9
-35 -10 -29 -32 -119 -45 -190 -24 -127 24 -232 137 -298 39 -23 57 -27 126
-27 130 0 182 35 294 200 52 76 334 458 356 481 5 6 19 23 30 38 11 16 25 33
30 40 6 6 43 56 84 111 91 121 98 128 116 121 8 -3 86 -9 173 -13 310 -14 579
-7 842 22 41 4 89 9 105 11 17 1 30 3 30 4 0 0 20 3 45 5 25 3 56 7 70 10 14
3 51 10 82 16 126 21 468 204 598 320 19 17 42 36 50 43 59 45 230 277 284
386 9 19 25 49 34 65 10 17 33 64 52 105 18 41 46 103 62 137 15 34 28 66 28
72 0 6 4 19 10 29 28 51 113 353 125 442 2 16 6 38 9 48 4 11 15 79 26 153 16
108 19 168 15 309 -5 183 -6 193 -31 330 -8 47 -17 98 -19 113 -2 16 -25 90
-51 165 -47 139 -119 293 -180 384 -19 27 -34 52 -34 55 0 9 -110 152 -152
198 -73 81 -170 174 -238 229 -125 102 -351 241 -455 279 -22 8 -49 18 -60 23
-11 4 -23 8 -27 9 -5 2 -9 3 -10 5 -2 1 -10 3 -18 5 -8 2 -42 11 -75 20 -33 9
-76 21 -95 26 -19 5 -105 22 -190 39 -85 16 -177 34 -205 40 -27 5 -77 12
-110 16 -33 3 -69 8 -80 11 -23 6 -423 12 -428 7z"/>
</g>
</svg>
